<?xml version="1.0" encoding="UTF-8"?>
<svg enable-background="new 0 0 500 500" viewBox="0 0 500 500" xmlns="http://www.w3.org/2000/svg">
 <path d="m182.33 367.68h-135.33l67.667-117.68-67.666-117.68 135.33 1e-3 67.674-117.69 67.672 117.69 135.33 1e-3 -67.666 117.68 67.666 117.68h-135.33l-67.672 117.69-67.673-117.69zm67.673 64.487 37.081-64.487h-74.162l37.081 64.487zm157.12-91.077-37.078-64.486-37.08 64.486h74.158zm-104.75 0 52.377-91.09-52.378-91.09-104.74-1e-3 -52.378 91.09 52.376 91.09 104.74 1e-3zm-135.33-1e-3 -37.081-64.487-37.083 64.487h74.164zm203-117.69 37.078-64.488-74.158-1e-3 37.08 64.489zm-240.09-1e-3 37.082-64.489h-74.164l37.082 64.489zm157.12-91.079-37.081-64.488-37.082 64.487 74.163 1e-3z" fill="#00c3ff"/>
 <path d="m250 18.116 66.666 115.94 133.33 2e-3 -66.666 115.94 66.666 115.94h-133.33l-66.665 115.94-66.667-115.94h-133.33l66.667-115.94-66.666-115.94 133.33 1e-3 66.668-115.94m40.086 115.94-40.087-69.716-40.088 69.715 80.175 1e-3m13.287 208.77h6e-3l-3e-3 -2e-3 53.376-92.826 2e-3 -5e-3 -2e-3 3e-3 -53.378-92.828-106.75-1e-3 2e-3 2e-3 -53.377 92.827 53.376 92.829 106.75 1e-3m-173.42-115.94 40.087-69.717h-80.175l40.088 69.717m240.09 1e-3 40.085-69.716-80.171-1e-3 40.086 69.717m-280.18 115.94h80.176l-40.086-69.717-40.09 69.717m240.09 1e-3h80.171l-40.085-69.715-40.086 69.715m-79.958 92.827 40.087-69.717h-80.174l40.087 69.717m1e-3 -424.52-3.016 5.244-65.665 114.2-131.32-1e-3h-6.013l2.997 5.212 65.669 114.21-65.67 114.21-2.997 5.212h137.33l65.664 114.2 3.016 5.244 3.016-5.244 65.663-114.2h137.33l-2.997-5.212-65.669-114.21 65.669-114.21 2.996-5.212h-137.33l-65.663-114.2-3.016-5.244zm-34.077 119.44 34.076-59.259 34.074 59.26-68.15-1e-3zm-120.04 30.068h68.151l-34.075 59.26-34.076-59.26zm51.377 89.351 51.378-89.351h102.72l51.378 89.352-51.378 89.352-102.73-2e-3 -51.375-89.351zm222.78-30.089-34.073-59.26h68.146l-34.073 59.26zm-274.16 119.44 34.077-59.26 34.074 59.26h-68.151zm240.09 2e-3 34.073-59.26 34.071 59.26h-68.144zm-120.05 30.067h68.149l-34.074 59.26-34.075-59.26z" fill="#008285"/>
 <g opacity=".1">
  <path d="m184 364.78h-132l66.002-114.78-66-114.78 132 1e-3 65.998-114.78 65.993 114.78 132 1e-3 -65.998 114.78 65.998 114.78h-132l-65.993 114.77-65.998-114.78zm65.997 73.203 42.091-73.203h-84.182l42.091 73.203zm162.13-93.994-42.09-73.201-42.094 73.201h84.184zm-108.1 0 53.893-94.285-53.874-93.692h-108.1l-54.042 93.988 54.042 93.987 108.08 2e-3zm-131.98-2e-3 -42.09-73.199-42.092 73.199h84.182zm198-114.77 42.09-73.201-84.182-1e-3 42.092 73.202zm-240.09-1e-3 42.092-73.201-84.183-1e-3 42.091 73.202zm162.13-93.993-42.091-73.202-42.092 73.201 84.183 1e-3z" fill="#006eff"/>
 </g>
 <g opacity=".1182">
  <path d="m184.49 363.94h-131.03l65.517-113.94-65.515-113.94 131.03 1e-3 65.51-113.93 65.505 113.93 131.03 1e-3 -65.514 113.94 65.514 113.94h-131.03l-65.506 113.93-65.509-113.93zm65.509 75.736 43.549-75.736h-87.097l43.548 75.736zm163.59-94.842-43.547-75.736-43.552 75.736h87.099zm-109.07-1e-3 54.374-95.129-54.357-94.535h-109.07l-54.527 94.832 54.527 94.832h109.05zm-131.01 0-43.547-75.735-43.55 75.735h87.097zm196.54-113.93 43.547-75.736-87.097-2e-3 43.55 75.738zm-240.09-2e-3 43.549-75.736-87.098-1e-3 43.549 75.737zm163.59-94.841-43.548-75.737-43.55 75.736 87.098 1e-3z" fill="#006eff"/>
 </g>
 <g opacity=".1364">
  <path d="m184.98 363.09h-130.06l65.032-113.1-65.031-113.1 130.06 1e-3 65.022-113.08 65.018 113.08 130.06 1e-3 -65.027 113.1 65.027 113.1h-130.06l-65.019 113.08-65.022-113.08zm65.022 78.271 45.006-78.271h-90.012l45.006 78.271zm165.05-95.69-45.005-78.271-45.009 78.271h90.014zm-110.04 0 54.855-95.974-54.842-95.376h-110.04l-55.012 95.675 55.012 95.675h110.03zm-130.04-1e-3 -45.005-78.27-45.007 78.27h90.012zm195.08-113.08 45.005-78.271-90.012-1e-3 45.007 78.272zm-240.09-2e-3 45.007-78.271-90.013-1e-3 45.006 78.272zm165.05-95.69-45.005-78.272-45.007 78.271 90.012 1e-3z" fill="#006eff"/>
 </g>
 <g opacity=".1545">
  <path d="m185.47 362.25h-129.09l64.547-112.25-64.546-112.25 129.09 1e-3 64.534-112.23 64.529 112.23 129.09 1e-3 -64.544 112.25 64.544 112.25h-129.09l-64.529 112.23-64.535-112.23zm64.534 80.806 46.464-80.806h-92.927l46.463 80.806zm166.51-96.539-46.462-80.806-46.467 80.806h92.929zm-111.01 0 55.341-96.817-55.326-96.219h-111.02l-55.497 96.518 55.497 96.519h111.01zm-129.08 0-46.462-80.806-46.465 80.806h92.927zm193.62-112.23 46.462-80.805-92.927-1e-3 46.465 80.806zm-240.09-1e-3 46.464-80.806-92.928-1e-3 46.464 80.807zm166.51-96.538-46.463-80.807-46.465 80.806 92.928 1e-3z" fill="#006eff"/>
 </g>
 <g opacity=".1727">
  <path d="m185.96 361.41h-128.12l64.063-111.41-64.062-111.41 128.12 1e-3 64.046-111.38 64.043 111.38 128.12 1e-3 -64.058 111.41 64.059 111.41h-128.12l-64.043 111.38-64.045-111.38zm64.045 83.342 47.921-83.342h-95.842l47.921 83.342zm167.96-97.388-47.92-83.342-47.924 83.342h95.844zm-111.98 0 55.822-97.663-55.812-97.062h-112l-55.981 97.361 55.981 97.361 111.98 3e-3zm-128.11-2e-3 -47.92-83.34-47.922 83.34h95.842zm192.17-111.38 47.92-83.34-95.842-1e-3 47.922 83.341zm-240.09-2e-3 47.922-83.34h-95.843l47.921 83.34zm167.96-97.387-47.92-83.341-47.922 83.34 95.842 1e-3z" fill="#006eff"/>
 </g>
 <g opacity=".1909">
  <path d="m186.44 360.56h-127.15l63.578-110.56-63.577-110.57 127.15 1e-3 63.56-110.53 63.555 110.53 127.15 1e-3 -63.573 110.57 63.573 110.56h-127.15l-63.555 110.53-63.558-110.53zm63.558 85.876 49.379-85.876h-98.757l49.378 85.876zm169.42-98.236-49.377-85.875-49.382 85.875h98.759zm-112.94 0 56.305-98.507-56.294-97.902h-112.97l-56.466 98.205 56.466 98.204h112.96zm-127.14-1e-3 -49.377-85.874-49.38 85.874h98.757zm190.71-110.53 49.377-85.875-98.756-1e-3 49.379 85.876zm-240.09-1e-3 49.379-85.875h-98.758l49.379 85.875zm169.42-98.235-49.378-85.876-49.38 85.875 98.758 1e-3z" fill="#006eff"/>
 </g>
 <g opacity=".2091">
  <path d="m186.93 359.72h-126.18l63.093-109.72-63.092-109.72 126.18 1e-3 63.071-109.69 63.066 109.69 126.18 1e-3 -63.09 109.72 63.09 109.72h-126.18l-63.066 109.69-63.071-109.69zm63.07 88.411 50.836-88.411h-101.67l50.836 88.411zm170.88-99.084-50.835-88.409-50.839 88.409h101.67zm-113.91 0 56.788-99.352-56.779-98.745h-113.95l-56.95 99.048 56.95 99.048 113.94 1e-3zm-126.17-1e-3 -50.835-88.408-50.838 88.408h101.67zm189.25-109.68 50.835-88.41-101.67-1e-3 50.836 88.411zm-240.09-2e-3 50.837-88.41h-101.67l50.836 88.41zm170.88-99.083-50.836-88.411-50.837 88.41 101.67 1e-3z" fill="#006eff"/>
 </g>
 <g opacity=".2273">
  <path d="m187.42 358.88h-125.21l62.607-108.88-62.606-108.88 125.21 1e-3 62.583-108.84 62.578 108.84 125.21 1e-3 -62.604 108.88 62.604 108.88h-125.21l-62.578 108.84-62.582-108.84zm62.582 90.945 52.294-90.945h-104.59l52.293 90.945zm172.34-99.932-52.292-90.943-52.297 90.943h104.59zm-114.88 0 57.271-100.2-57.263-99.586h-114.92l-57.436 99.891 57.437 99.891h114.91zm-125.2 0-52.292-90.943-52.295 90.943h104.59zm187.79-108.84 52.292-90.945-104.59-1e-3 52.294 90.946zm-240.09-2e-3 52.294-90.945h-104.59l52.294 90.945zm172.34-99.932-52.293-90.945-52.295 90.945h104.59z" fill="#006eff"/>
 </g>
 <g opacity=".2455">
  <path d="m187.91 358.03h-124.24l62.123-108.04-62.122-108.04 124.24 1e-3 62.095-107.99 62.092 107.99 124.24 1e-3 -62.119 108.04 62.12 108.04h-124.24l-62.092 107.99-62.094-107.99zm62.094 93.481 53.752-93.479h-107.5l53.751 93.479zm173.79-100.78-53.75-93.479-53.753 93.479h107.5zm-115.85 0 57.753-101.04-57.747-100.43h-115.9l-57.92 100.73 57.92 100.73 115.89 3e-3zm-124.24-2e-3 -53.75-93.479-53.753 93.479h107.5zm186.34-107.98 53.75-93.479-107.5-2e-3 53.751 93.481zm-240.09-2e-3 53.752-93.479-107.5-1e-3 53.751 93.48zm173.79-100.78-53.751-93.48-53.752 93.479 107.5 1e-3z" fill="#006eff"/>
 </g>
 <g opacity=".2636">
  <path d="m188.4 357.19h-123.27l61.638-107.19-61.637-107.19 123.27 1e-3 61.607-107.14 61.604 107.14 123.27 1e-3 -61.636 107.19 61.636 107.19h-123.27l-61.604 107.14-61.605-107.14zm61.606 96.016 55.209-96.016h-110.42l55.209 96.016zm175.25-101.63-55.207-96.015-55.211 96.015h110.42zm-116.82 0 58.235-101.88-58.23-101.27h-116.88l-58.404 101.58 58.404 101.58 116.87 1e-3zm-123.27-1e-3 -55.208-96.014-55.21 96.014h110.42zm184.88-107.14 55.207-96.014-110.42-2e-3 55.209 96.016zm-240.09-2e-3 55.209-96.014-110.42-1e-3 55.209 96.015zm175.25-101.63-55.208-96.015-55.21 96.014 110.42 1e-3z" fill="#006eff"/>
 </g>
 <g opacity=".2818">
  <path d="m188.88 356.35h-122.3l61.152-106.35-61.151-106.35 122.3 1e-3 61.12-106.29 61.115 106.29 122.3 1e-3 -61.149 106.35 61.148 106.35h-122.3l-61.115 106.29-61.119-106.29zm61.119 98.55 56.665-98.551h-113.33l56.666 98.551zm176.71-102.48-56.665-98.55-56.668 98.55h113.33zm-117.79 0 58.719-102.73-58.716-102.11h-117.85l-58.891 102.42 58.891 102.42 117.85 1e-3zm-122.3-1e-3 -56.665-98.549-56.668 98.549h113.33zm183.42-106.29 56.665-98.549-113.33-2e-3 56.667 98.551zm-240.09-2e-3 56.667-98.549-113.33-1e-3 56.666 98.55zm176.71-102.48-56.664-98.55-56.667 98.549 113.33 1e-3z" fill="#006eff"/>
 </g>
 <path d="m428.17 146.74-58.121 101.08-58.124-101.09 116.24 2e-3zm0 206.53h-116.25l58.126-101.08 58.121 101.08zm-178.16 103.33-58.124-101.08h116.25l-58.124 101.08zm181.96-312.1-121.33-1e-3 -60.628-105.44-60.632 105.44-121.33-1e-3 60.667 105.51-60.668 105.51h121.33l60.631 105.44 60.628-105.44h121.33l-60.665-105.51 60.665-105.51zm-181.96-101.08 58.123 101.08-116.25-1e-3 58.125-101.08zm-178.17 103.32 116.25 1e-3 -58.125 101.08-58.124-101.08zm-2e-3 206.53 58.125-101.08 58.123 101.08h-116.25zm59.379-103.26 59.375-103.26h118.83l59.199 102.95-59.201 103.58-118.82-2e-3 -59.375-103.26z" fill="#006eff" opacity=".3"/>
</svg>
